inDegrees=no
num_controls=7
num_derivatives=13
num_iterations=358
num_multipliers=7
num_parameters=0
num_slacks=7
num_states=26
objective=5.877548
objective_accelerations=0.731579
objective_balance=0.129510
objective_effort=0.479637
objective_height=4.517341
objective_ligament=0.019481
solver_duration=4061.171153
status=Solve_Succeeded
success=true
DataType=double
version=3
OpenSimVersion=4.4-2022-07-23-0e9fedc
endheader
time	/jointset/ground_pelvis/pelvis_tilt/value	/jointset/ground_pelvis/pelvis_tx/value	/jointset/ground_pelvis/pelvis_ty/value	/jointset/hip_l/hip_flexion_l/value	/jointset/hip_l/hip_adduction_l/value	/jointset/hip_l/hip_rotation_l/value	/jointset/back/lumbar_extension/value	/jointset/patellofemoral_l/patellar_flexion_l/value	/jointset/knee_l/knee_flexion_l/value	/jointset/knee_l/knee_adduction_l/value	/jointset/knee_l/knee_rotation_l/value	/jointset/ankle_l/ankle_angle_l/value	/jointset/subtalar_l/subtalar_angle_l/value	/jointset/ground_pelvis/pelvis_tilt/speed	/jointset/ground_pelvis/pelvis_tx/speed	/jointset/ground_pelvis/pelvis_ty/speed	/jointset/hip_l/hip_flexion_l/speed	/jointset/hip_l/hip_adduction_l/speed	/jointset/hip_l/hip_rotation_l/speed	/jointset/back/lumbar_extension/speed	/jointset/patellofemoral_l/patellar_flexion_l/speed	/jointset/knee_l/knee_flexion_l/speed	/jointset/knee_l/knee_adduction_l/speed	/jointset/knee_l/knee_rotation_l/speed	/jointset/ankle_l/ankle_angle_l/speed	/jointset/subtalar_l/subtalar_angle_l/speed	/forceset/tau_hip_flexion_l	/forceset/tau_hip_adduction_l	/forceset/tau_hip_rotation_l	/forceset/tau_knee_flexion_l	/forceset/tau_ankle_angle_l	/forceset/tau_subtalar_angle_l	/forceset/tau_lumbar_extension	lambda_cid13_p0	lambda_cid13_p1	lambda_cid13_p2	lambda_cid13_p3	lambda_cid13_p4	lambda_cid13_p5	lambda_cid14_p0	/jointset/ground_pelvis/pelvis_tilt/accel	/jointset/ground_pelvis/pelvis_tx/accel	/jointset/ground_pelvis/pelvis_ty/accel	/jointset/hip_l/hip_flexion_l/accel	/jointset/hip_l/hip_adduction_l/accel	/jointset/hip_l/hip_rotation_l/accel	/jointset/back/lumbar_extension/accel	/jointset/patellofemoral_l/patellar_flexion_l/accel	/jointset/knee_l/knee_flexion_l/accel	/jointset/knee_l/knee_adduction_l/accel	/jointset/knee_l/knee_rotation_l/accel	/jointset/ankle_l/ankle_angle_l/accel	/jointset/subtalar_l/subtalar_angle_l/accel	gamma_cid13_p0	gamma_cid13_p1	gamma_cid13_p2	gamma_cid13_p3	gamma_cid13_p4	gamma_cid13_p5	gamma_cid14_p0
1	-0.7257671595371524	-0.124614358747964	0.5637983840748968	2.094393388293511	-0.2870253579892749	0.172257425877529	-0.4363318459201682	1.292113061059316	1.292113061059317	-0.1745294251942182	0.1745325664016302	0.1253151242143713	-0.01353628208559622	-0.01137287341711471	0.0006311342682931027	-0.00338602926123687	0.01733858724339364	0.0008146756465643462	0.003195383262033669	-3.402404312833837e-07	0.008096132026825985	0.008096132026827317	-7.629202220099136e-05	7.067971810393071e-08	0.002688848339956808	0.001404735690594931	-0.4887692492841134	0.00283908549290462	-0.01404487115162405	-0.2307023597348059	0.08519304673177591	0.02499914441857925	0.3806426949590558	-19.56336961954276	-7.221317264028468	0.5085212165225191	13.07178410199902	-741.7566301702377	-38.87975648593015	-0.03973971676482017	2.100074002559567	0.2048388174474596	1.88771457741049	-6.910406467749489	-0.5061254424144531	-1.907405878333116	-0.01622053414181597	-5.047604570509121	-5.047604570509113	-0.04487021173823428	0.01991816554818002	-0.527325821950714	-0.6188768155955993	8.146509192776548e-10	2.972111306674351e-09	-8.74693159641139e-09	-4.304883726268446e-10	1.434445730167991e-09	-5.376509236772259e-09	1.851896821959744e-09
1.01	-0.725776614214112	-0.1245978660845288	0.5638587889137592	2.094222192126526	-0.2870414788664633	0.1721929823719347	-0.4363318345757703	1.291941870890628	1.291941870890628	-0.1745299689056201	0.1745325700180019	0.1253158819916393	-0.01355195832720039	0.009483954795909209	0.002668984943616761	0.01546405593073785	-0.05157293668428547	-0.004035311632803412	-0.0160825972722794	1.680977667405201e-06	-0.04232918157949477	-0.04232918157949112	-2.990392056163726e-05	3.800068617429794e-07	-0.002539135316496397	-0.004536310996457803	-0.4886413487858055	0.002875067614047583	-0.01405596908678191	-0.2306473704249241	0.08521349300108857	0.02503897575876164	0.3805653551833799	-19.54554774206969	-7.243734187562998	0.514376904347948	13.02551225899662	-741.6180191793964	-38.91488877040262	-0.0397539400543514	2.078789353163807	0.2034965957428037	1.88321308767638	-6.880793293351575	-0.4739072590423976	-1.937776212483403	0.008274228330570737	-5.039245854710258	-5.039245854709839	0.02977241790433102	-0.009960145669077493	-0.5208106584470124	-0.5811696125999732	-2.993054007255178e-09	-7.110175977614731e-09	2.592813039738609e-08	2.096598771034873e-09	-6.108682742465952e-09	2.869649792955882e-08	-6.284014969398285e-09
1.02	-0.7255774401844453	-0.1245609472337067	0.5641076061240582	2.093362027132648	-0.2871059939941144	0.1719358026466924	-0.4363318308634755	1.291266577366072	1.291266577366071	-0.1745299729166713	0.1745325672352546	0.1252643047281516	-0.01362693523914304	0.03035286790853259	0.004716371745676258	0.0342964450261115	-0.1204551781349415	-0.008864174445948066	-0.03535186066671377	-1.866662440587937e-06	-0.09272453914648558	-0.09272453914647752	3.164805264886617e-05	-1.209144656231446e-06	-0.007778159811125994	-0.0104553983771057	-0.4885134482874986	0.002911049735184608	-0.01406706702190032	-0.2305923811150468	0.08523393927039834	0.02507880709893658	0.3804880154077037	-19.53388221046135	-7.263723493698133	0.5183039505344278	13.00524169002763	-741.5600478324875	-38.90609146419775	-0.03974907201281819	2.102490982479436	0.2067460427946317	1.884175358090277	-6.904549972344869	-0.5019005491698313	-1.905662450357355	-0.01733430578315293	-5.04161336264314	-5.041613362642709	-0.04183743742402313	0.01953846981584682	-0.5295339895859839	-0.614484954314628	-6.909124930711686e-09	-1.729320122852193e-08	6.103584358154453e-08	4.786843084981489e-09	-1.370694366181055e-08	6.283780333887652e-08	-1.448918014410375e-08
1.03	-0.7251695086679495	-0.1245034731048201	0.5645445865704071	2.091813332070836	-0.2872186676314845	0.1714861536326056	-0.4363318681986978	1.290087578634176	1.290087578634172	-0.1745294456332261	0.1745325529334513	0.1251602194966274	-0.01376097621223875	0.05123577128679695	0.006783334057714963	0.05308952072579822	-0.189264110342117	-0.01366402405372685	-0.05455881674801782	-3.828455208577073e-06	-0.1430606355727918	-0.1430606355727871	6.141199579603152e-05	-1.354750560096187e-06	-0.01304687972497338	-0.0163467945154538	-0.4879945109466741	0.002998960157634615	-0.01410563213456852	-0.2304900377575463	0.0854105849051757	0.02521202378589864	0.3801862026895161	-19.44752743495837	-7.341595257112139	0.5363108381346566	12.88983181214691	-741.1791896664369	-38.98882159734521	-0.03977288615828678	2.08153902091184	0.2074048414147124	1.875350841033646	-6.866108123448944	-0.4680587740874181	-1.925361723152398	0.008638673306530797	-5.027417444884853	-5.027417444885645	0.02351387116501216	-0.009770587626857688	-0.5267386946505624	-0.5755738031497722	-1.082630162964701e-08	-2.747725441786401e-08	9.614797157376789e-08	7.478752268012644e-09	-2.130576715714199e-08	9.697980566904104e-08	-2.269505198598624e-08
1.04	-0.7245526783165902	-0.1244251826496117	0.5651691932067777	2.089577139031242	-0.2873791460864336	0.1708450051504793	-0.4363318719940025	1.288405657005564	1.288405657005558	-0.1745289945981497	0.1745325412732176	0.1250032075254914	-0.01395375251862889	0.07213263488153585	0.008879637010014572	0.07182168303050117	-0.2579547736910942	-0.01842513796172699	-0.07365175427474079	4.841325228378747e-06	-0.1933091184895191	-0.193309118489521	1.639837818036641e-05	-6.808297979037399e-07	-0.01836350773347908	-0.02220246503599718	-0.4874755736058485	0.003086870580086982	-0.01414419724725317	-0.230387694400046	0.08558723053995307	0.02534524047286345	0.3798843899713298	-19.36740194631519	-7.417030365116925	0.5523919019965017	12.80067156380583	-740.8797510443328	-39.02809616881158	-0.03977746006269791	2.105283025774312	0.2126141708468234	1.871992679093524	-6.880896200705172	-0.4941534092141243	-1.882858739441117	-0.01520799114216604	-5.024090660727367	-5.024090660727556	-0.05679294957664251	0.01970237514907904	-0.5391156085176304	-0.6073398307537055	-1.422255881158891e-08	-3.751209570953157e-08	1.237602695807175e-07	9.184483546602385e-09	-2.793524949170303e-08	1.243091428795884e-07	-2.95585843051825e-08
